<svg width="84px" height="84px" version="1.1" xmlns="http://www.w3.org/2000/svg" transform="rotate(0) scale(1, 1)">
  <title>5 by 5 orthogonal maze</title>
  <desc>5 by 5 orthogonal maze generated by The Maze Generator Website (https://www.mazegenerator.net/).</desc>
  <g fill="none" stroke="#ffffff" stroke-width="2" stroke-linecap="square">
    <line x1="2" y1="2" x2="34" y2="2"/>
    <line x1="50" y1="2" x2="82" y2="2"/>
    <line x1="18" y1="18" x2="34" y2="18"/>
    <line x1="66" y1="18" x2="82" y2="18"/>
    <line x1="50" y1="34" x2="66" y2="34"/>
    <line x1="2" y1="50" x2="18" y2="50"/>
    <line x1="34" y1="50" x2="66" y2="50"/>
    <line x1="18" y1="66" x2="34" y2="66"/>
    <line x1="66" y1="66" x2="82" y2="66"/>
    <line x1="2" y1="82" x2="34" y2="82"/>
    <line x1="50" y1="82" x2="82" y2="82"/>
    <line x1="2" y1="2" x2="2" y2="82"/>
    <line x1="18" y1="34" x2="18" y2="50"/>
    <line x1="34" y1="18" x2="34" y2="50"/>
    <line x1="34" y1="66" x2="34" y2="82"/>
    <line x1="50" y1="18" x2="50" y2="34"/>
    <line x1="50" y1="50" x2="50" y2="82"/>
    <line x1="66" y1="34" x2="66" y2="50"/>
    <line x1="82" y1="2" x2="82" y2="82"/>
  </g>
</svg>